<svg width="49" height="49" viewBox="0 0 49 49" fill="none" xmlns="http://www.w3.org/2000/svg">
<rect width="49" height="49" rx="8" fill="#6FD866" fill-opacity="0.1"/>
<path d="M32 27.625C32.4832 27.625 32.875 28.0168 32.875 28.5V31.125H35.5C35.9832 31.125 36.375 31.5168 36.375 32C36.375 32.4832 35.9832 32.875 35.5 32.875H32.875V35.5C32.875 35.9832 32.4832 36.375 32 36.375C31.5168 36.375 31.125 35.9832 31.125 35.5V32.875H28.5C28.0168 32.875 27.625 32.4832 27.625 32C27.625 31.5168 28.0168 31.125 28.5 31.125H31.125V28.5C31.125 28.0168 31.5168 27.625 32 27.625ZM29.2139 14.5C31.4951 14.5 33.4423 16.1492 33.8174 18.3994L34.8848 24.8086C35.0031 25.5196 34.4552 26.167 33.7344 26.167H30.834C28.2568 26.167 26.1672 28.2558 26.167 30.833V34.333C26.167 34.9773 25.6443 35.5 25 35.5H18.8428C15.9592 35.5 13.7654 32.9108 14.2393 30.0664L16.1836 18.3994C16.5586 16.1492 18.5059 14.5 20.7871 14.5H29.2139ZM28.5 17.125C28.0169 17.1252 27.625 17.5169 27.625 18V19.167C27.6248 20.6166 26.4496 21.792 25 21.792C23.5505 21.7918 22.3752 20.6165 22.375 19.167V18C22.375 17.5168 21.9832 17.125 21.5 17.125C21.0169 17.1252 20.625 17.5169 20.625 18V19.167C20.6252 21.583 22.584 23.5418 25 23.542C27.4161 23.542 29.3748 21.5831 29.375 19.167V18C29.375 17.5168 28.9832 17.125 28.5 17.125Z" fill="#3EC832"/>
</svg>
