<svg width="49" height="49" viewBox="0 0 49 49" fill="none" xmlns="http://www.w3.org/2000/svg">
<rect width="49" height="49" rx="8" fill="#6FD866" fill-opacity="0.1"/>
<path d="M25 26.166C28.866 26.166 32 27.733 32 29.666C32 31.599 28.866 33.166 25 33.166C21.134 33.166 18 31.599 18 29.666C18 27.733 21.134 26.166 25 26.166ZM18.4453 26.1885C17.0794 27.1145 16.2502 28.3322 16.25 29.666C16.25 30.4223 16.5164 31.1414 16.9961 31.791C14.8493 31.3605 13.333 30.3103 13.333 29.083C13.3331 27.5944 15.5641 26.3662 18.4453 26.1885ZM31.5547 26.1885C34.4358 26.3662 36.6659 27.5944 36.666 29.083C36.666 30.3102 35.1505 31.3604 33.0039 31.791C33.4835 31.1415 33.75 30.4221 33.75 29.666C33.7498 28.3322 32.9205 27.1145 31.5547 26.1885ZM19.166 19.166C19.4066 19.166 19.6391 19.2019 19.8574 19.2695C19.7869 19.6127 19.75 19.9689 19.75 20.333C19.7501 21.43 20.0867 22.4488 20.6621 23.291C20.2572 23.6294 19.735 23.833 19.166 23.833C17.8775 23.8328 16.833 22.7876 16.833 21.499C16.8332 20.2106 17.8776 19.1662 19.166 19.166ZM25 16.833C26.933 16.833 28.5 18.4 28.5 20.333C28.5 22.266 26.933 23.833 25 23.833C23.067 23.833 21.5 22.266 21.5 20.333C21.5 18.4 23.067 16.833 25 16.833ZM30.833 19.166C32.1216 19.166 33.1668 20.2105 33.167 21.499C33.167 22.7877 32.1217 23.833 30.833 23.833C30.2642 23.833 29.7427 23.6293 29.3379 23.291C29.9133 22.4488 30.2499 21.43 30.25 20.333C30.25 19.9689 30.2131 19.6127 30.1426 19.2695C30.3607 19.202 30.5927 19.166 30.833 19.166Z" fill="#3EC832"/>
</svg>
