<svg width="49" height="49" viewBox="0 0 49 49" fill="none" xmlns="http://www.w3.org/2000/svg">
<rect width="49" height="49" rx="8" fill="#6FD866" fill-opacity="0.1"/>
<path d="M25 13.333C31.4432 13.3332 36.666 18.5568 36.666 25C36.6658 31.4431 31.4431 36.6658 25 36.666C18.5568 36.666 13.3332 31.4432 13.333 25C13.333 18.5567 18.5567 13.333 25 13.333ZM25 17.833C24.5858 17.833 24.25 18.1688 24.25 18.583V19.6748C22.9093 20.0097 21.916 21.2226 21.916 22.667C21.9162 24.3696 23.2964 25.7498 24.999 25.75C25.0023 25.75 25.0055 25.7491 25.0088 25.749C25.8788 25.7543 26.583 26.4618 26.583 27.333C26.5828 28.2073 25.8734 28.916 24.999 28.916C24.1248 28.9158 23.4162 28.2072 23.416 27.333C23.416 26.9188 23.0802 26.583 22.666 26.583C22.2518 26.583 21.916 26.9188 21.916 27.333C21.9162 28.7773 22.9094 29.9895 24.25 30.3242V31.416C24.25 31.8302 24.5858 32.166 25 32.166C25.4142 32.166 25.75 31.8302 25.75 31.416V30.3232C27.0899 29.9879 28.0829 28.7767 28.083 27.333C28.083 25.6301 26.7019 24.249 24.999 24.249C24.9954 24.249 24.9919 24.249 24.9883 24.249C24.119 24.2431 23.4162 23.5376 23.416 22.667C23.416 21.7927 24.1247 21.0832 24.999 21.083C25.8735 21.083 26.583 21.7925 26.583 22.667C26.5832 23.0811 26.9189 23.417 27.333 23.417C27.747 23.4168 28.0828 23.0809 28.083 22.667C28.083 21.2231 27.0901 20.0102 25.75 19.6748V18.583C25.75 18.1688 25.4142 17.833 25 17.833Z" fill="#3EC832"/>
</svg>
