<svg width="49" height="49" viewBox="0 0 49 49" fill="none" xmlns="http://www.w3.org/2000/svg">
<rect width="49" height="49" rx="8" fill="#6FD866" fill-opacity="0.1"/>
<path d="M33.167 29.958C33.6501 29.9582 34.042 30.3499 34.042 30.833V32.291H35.5C35.9831 32.291 36.3748 32.6829 36.375 33.166C36.375 33.6493 35.9832 34.041 35.5 34.041H34.042V35.5C34.0418 35.983 33.65 36.3748 33.167 36.375C32.6839 36.375 32.2922 35.9831 32.292 35.5V34.041H30.833C30.3499 34.0408 29.958 33.6492 29.958 33.166C29.9582 32.683 30.35 32.2912 30.833 32.291H32.292V30.833C32.292 30.3498 32.6837 29.958 33.167 29.958ZM36.666 27.5C36.666 28.0523 36.2183 28.5 35.666 28.5H31.333C29.1239 28.5 27.333 30.2909 27.333 32.5V34.5C27.333 35.0523 26.8853 35.5 26.333 35.5H17.333C15.1239 35.5 13.333 33.7091 13.333 31.5V24.709H36.666V27.5ZM18 29.667C17.3557 29.667 16.833 30.1897 16.833 30.834C16.8332 31.4782 17.3558 32 18 32C18.6442 32 19.1668 31.4782 19.167 30.834C19.167 30.1897 18.6443 29.667 18 29.667ZM36.666 22.959H13.333V20.042H36.666V22.959ZM32.666 14.5C34.8054 14.5 36.5529 16.1795 36.6611 18.292H13.3379C13.4461 16.1795 15.1936 14.5 17.333 14.5H32.666Z" fill="#3EC832"/>
</svg>
